<svg
                xmlns="http://www.w3.org/2000/svg"
                xmlnsXlink="http://www.w3.org/1999/xlink"
                width="500"
                zoomAndPan="magnify"
                viewBox="0 0 375 374.999991"
                height="500"
                preserveAspectRatio="xMidYMid meet"
                version="1.0"
              >
                <defs>
                  <g />
                  <clipPath id="139101491f">
                    <path
                      d="M 37.5 96.1875 L 174 96.1875 L 174 279 L 37.5 279 Z M 37.5 96.1875 "
                      clip-rule="nonzero"
                    />
                  </clipPath>
                  <clipPath id="b273e72481">
                    <path
                      d="M 110 96.1875 L 337.5 96.1875 L 337.5 279 L 110 279 Z M 110 96.1875 "
                      clip-rule="nonzero"
                    />
                  </clipPath>
                </defs>
                <g clipPath="url(#139101491f)">
                  <path
                    fill="#00a7f8"
                    d="M 140.636719 184.105469 L 173.398438 184.105469 L 140.632812 96.257812 L 105.550781 96.257812 L 73.578125 181.988281 L 37.492188 278.742188 L 70.25 278.742188 L 106.335938 181.988281 L 123.09375 137.0625 L 140.636719 184.105469 "
                    fillOpacity="1"
                    fillRule="nonzero"
                  />
                </g>
                <g clipPath="url(#b273e72481)">
                  <path
                    fill="#1a6acd"
                    d="M 246.261719 96.257812 L 160.464844 96.257812 L 209.546875 227.859375 L 242.304688 227.859375 L 204.671875 126.949219 L 246.261719 126.949219 C 279.703125 126.949219 306.816406 154.058594 306.816406 187.5 C 306.816406 220.941406 279.703125 248.050781 246.261719 248.050781 L 197.246094 248.050781 L 188.335938 224.152344 L 188.332031 224.152344 L 180.929688 204.308594 L 120.875 204.308594 L 110.605469 235 L 159.621094 235 L 175.933594 278.742188 L 247.765625 278.742188 L 247.757812 278.726562 C 297.460938 277.925781 337.507812 237.394531 337.507812 187.5 C 337.507812 137.105469 296.65625 96.257812 246.261719 96.257812 "
                    fillOpacity="1"
                    fillRule="nonzero"
                  />
                </g>
              </svg>