<?xml version="1.0" encoding="UTF-8"?>
<svg version="1.1" xmlns="http://www.w3.org/2000/svg" width="1080" height="1080">
<path d="M0 0 C356.4 0 712.8 0 1080 0 C1080 356.4 1080 712.8 1080 1080 C723.6 1080 367.2 1080 0 1080 C0 723.6 0 367.2 0 0 Z " fill="#FEFEFE" transform="translate(0,0)"/>
<path d="M0 0 C232.32 0 464.64 0 704 0 C704 88.44 704 176.88 704 268 C471.68 268 239.36 268 0 268 C0 179.56 0 91.12 0 0 Z " fill="#1C2631" transform="translate(214,371)"/>
<path d="M0 0 C1.30082016 0.00015106 2.60164032 0.00030212 3.94187927 0.00045776 C5.34154416 0.01066797 6.74120744 0.02109991 8.14086914 0.03173828 C9.58817854 0.03547345 11.0354905 0.03831804 12.48280334 0.04031372 C16.27217726 0.04791054 20.06139524 0.06752453 23.85070801 0.08972168 C27.72540173 0.11026575 31.60012091 0.11933366 35.47485352 0.12939453 C43.06281485 0.15077462 50.65064818 0.18486216 58.23852539 0.22705078 C58.23852539 2.22705078 58.23852539 2.22705078 56.76977539 3.70751953 C56.09946289 4.27083984 55.42915039 4.83416016 54.73852539 5.41455078 C54.08883789 5.96498047 53.43915039 6.51541016 52.76977539 7.08251953 C51.93446289 7.79021484 51.09915039 8.49791016 50.23852539 9.22705078 C49.70108704 9.79263702 49.16364868 10.35822327 48.60992432 10.94094849 C44.09122773 15.45530427 40.96057591 17.02262645 34.5737915 17.06999207 C33.64330994 17.04318863 32.71282837 17.01638519 31.75415039 16.98876953 C30.28712677 16.99297661 30.28712677 16.99297661 28.79046631 16.99726868 C25.68867645 17.00251917 22.58992078 16.96205311 19.48852539 16.91455078 C16.37332822 16.88303798 13.2590997 16.86177161 10.14373779 16.8639679 C8.21153539 16.86383806 6.27920441 16.84361599 4.34747314 16.8009491 C-0.85420134 16.72570712 -0.85420134 16.72570712 -5.3503418 19.09741211 C-7.87262171 22.90396016 -7.50534029 26.84407753 -6.76147461 31.22705078 C-4.87632238 33.8034255 -3.56812604 34.82372507 -0.76147461 36.22705078 C0.76866647 36.3302343 2.30309939 36.37293351 3.83666992 36.38476562 C4.79171417 36.39502777 5.74675842 36.40528992 6.73074341 36.41586304 C8.28533768 36.42681503 8.28533768 36.42681503 9.87133789 36.43798828 C12.06144936 36.46607061 14.25155342 36.49473516 16.44165039 36.52392578 C19.89770188 36.56509259 23.35361723 36.60197497 26.80981445 36.62841797 C30.14311428 36.65613971 33.47578346 36.70202788 36.80883789 36.75048828 C37.83308868 36.75374115 38.85733948 36.75699402 39.91262817 36.76034546 C46.82639932 36.87794484 52.61987219 37.656245 58.41040039 41.77001953 C66.03575182 49.71623971 67.69018485 55.42257627 67.57446289 66.54345703 C66.96906777 73.18168487 65.53718756 77.55706925 60.98852539 82.47705078 C59.86704102 83.72228516 59.86704102 83.72228516 58.72290039 84.99267578 C54.00725333 89.23379232 49.88232808 90.60434924 43.59057617 90.56762695 C42.28968048 90.56740036 40.98878479 90.56717377 39.64846802 90.56694031 C38.24358774 90.55162379 36.83871105 90.53597586 35.43383789 90.52001953 C33.98510173 90.51441848 32.53635986 90.51015079 31.08761597 90.50715637 C27.28991784 90.49574755 23.49256846 90.46631518 19.69500732 90.43304443 C15.81372799 90.40225756 11.93239185 90.3886327 8.05102539 90.37353516 C0.4467004 90.34144108 -7.15733808 90.2902935 -14.76147461 90.22705078 C-14.98834961 90.92830078 -15.21522461 91.62955078 -15.44897461 92.35205078 C-16.76147461 95.22705078 -16.76147461 95.22705078 -21.76147461 101.22705078 C4.63852539 101.55705078 31.03852539 101.88705078 58.23852539 102.22705078 C59.22852539 100.24705078 59.22852539 100.24705078 60.23852539 98.22705078 C62.36352539 96.47705078 62.36352539 96.47705078 64.23852539 95.22705078 C62.86447116 98.1865522 61.22075607 100.64200474 59.23852539 103.22705078 C67.14645021 103.22093651 67.14645021 103.22093651 73.92602539 99.66455078 C74.68915039 98.86017578 75.45227539 98.05580078 76.23852539 97.22705078 C75.24852539 99.20705078 75.24852539 99.20705078 74.23852539 101.22705078 C97.99852539 101.55705078 121.75852539 101.88705078 146.23852539 102.22705078 C146.23852539 102.88705078 146.23852539 103.54705078 146.23852539 104.22705078 C144.84363388 104.2092028 144.84363388 104.2092028 143.42056274 104.19099426 C134.62319049 104.08567471 125.82715733 104.03889257 117.02913857 104.04826832 C112.5064978 104.05123757 107.98584894 104.0341492 103.46362305 103.9699707 C99.09260022 103.90869678 94.72444975 103.90174589 90.35313034 103.9312191 C88.69223484 103.93311124 87.03119699 103.91598126 85.37071609 103.87882423 C75.47952419 103.47520147 75.47952419 103.47520147 66.92523193 107.76254272 C64.3840057 110.36524849 62.25241717 113.19626177 60.23852539 116.22705078 C60.23852539 112.447946 61.23556501 111.76598977 63.73852539 109.03955078 C64.38821289 108.32412109 65.03790039 107.60869141 65.70727539 106.87158203 C66.46524414 106.05753906 66.46524414 106.05753906 67.23852539 105.22705078 C65.65605832 105.14551145 64.07236266 105.08761521 62.48852539 105.03955078 C61.60680664 105.00474609 60.72508789 104.96994141 59.81665039 104.93408203 C56.79180956 105.27781394 55.48268937 106.22932537 53.23852539 108.22705078 C53.56852539 107.23705078 53.89852539 106.24705078 54.23852539 105.22705078 C33.44852539 105.22705078 12.65852539 105.22705078 -8.76147461 105.22705078 C-6.78147461 107.53705078 -4.80147461 109.84705078 -2.76147461 112.22705078 C-3.09147461 112.88705078 -3.42147461 113.54705078 -3.76147461 114.22705078 C-4.93408072 112.94077367 -6.09940291 111.64785295 -7.26147461 110.35205078 C-7.91116211 109.63275391 -8.56084961 108.91345703 -9.23022461 108.17236328 C-10.76147461 106.22705078 -10.76147461 106.22705078 -10.76147461 104.22705078 C-20.16635715 103.73116653 -20.16635715 103.73116653 -28.53881836 107.29736328 C-30.47048751 109.5259436 -32.18620856 111.73581534 -33.76147461 114.22705078 C-33.76147461 109.83736622 -31.6334236 108.45799339 -28.76147461 105.22705078 C-30.36480252 105.14583154 -31.96931487 105.08775944 -33.57397461 105.03955078 C-34.46729492 105.00474609 -35.36061523 104.96994141 -36.28100586 104.93408203 C-39.17794976 105.27624076 -39.98702489 105.98098652 -41.76147461 108.22705078 C-41.26647461 106.24705078 -41.26647461 106.24705078 -40.76147461 104.22705078 C-42.69964196 104.34123738 -44.63702559 104.46878501 -46.57397461 104.60205078 C-47.65291992 104.67166016 -48.73186523 104.74126953 -49.84350586 104.81298828 C-52.94773646 105.03900811 -52.94773646 105.03900811 -55.76147461 107.22705078 C-55.76147461 106.56705078 -55.76147461 105.90705078 -55.76147461 105.22705078 C-75.56147461 104.73205078 -75.56147461 104.73205078 -95.76147461 104.22705078 C-95.76147461 103.89705078 -95.76147461 103.56705078 -95.76147461 103.22705078 C-94.54153809 103.25436279 -93.32160156 103.2816748 -92.06469727 103.30981445 C-87.49816223 103.39725947 -82.93374017 103.41122569 -78.36645508 103.40405273 C-76.39753635 103.41098895 -74.42857966 103.43732736 -72.46020508 103.48413086 C-60.76103103 104.20802047 -60.76103103 104.20802047 -50.35424805 99.91137695 C-47.82647031 97.14559417 -45.77578139 94.38037052 -43.76147461 91.22705078 C-42.82144363 90.07515059 -41.8668744 88.93463715 -40.88647461 87.81689453 C-39.83459961 86.50398437 -39.83459961 86.50398437 -38.76147461 85.16455078 C-34.92935782 80.39493399 -34.92935782 80.39493399 -32.76147461 78.22705078 C-32.29660743 75.10508742 -32.29660743 75.10508742 -32.13647461 71.60205078 C-32.06170898 70.41353516 -31.98694336 69.22501953 -31.90991211 68.00048828 C-31.86092773 67.08525391 -31.81194336 66.17001953 -31.76147461 65.22705078 C-31.43147461 65.22705078 -31.10147461 65.22705078 -30.76147461 65.22705078 C-29.76884213 70.73319161 -29.01673675 76.25846781 -31.94067383 81.23339844 C-35.03977037 85.31623936 -38.60277185 88.96033083 -42.20141602 92.6015625 C-45.05257413 95.57229971 -47.37333982 98.88366207 -49.76147461 102.22705078 C-44.63580113 102.46260563 -40.36731309 102.58880182 -36.32006836 99.15673828 C-34.93736778 97.53212876 -33.60050913 95.86701155 -32.32006836 94.16064453 C-31.80573242 93.52255859 -31.29139648 92.88447266 -30.76147461 92.22705078 C-30.10147461 92.22705078 -29.44147461 92.22705078 -28.76147461 92.22705078 C-30.42898609 96.16844156 -32.9885811 99.01633198 -35.76147461 102.22705078 C-28.69025559 102.46021512 -28.69025559 102.46021512 -22.50756836 99.48486328 C-19.87566483 96.48482293 -18.03007692 94.03285772 -16.76147461 90.22705078 C-18.74147461 90.22705078 -20.72147461 90.22705078 -22.76147461 90.22705078 C-22.76147461 89.56705078 -22.76147461 88.90705078 -22.76147461 88.22705078 C-21.29337956 86.91551315 -19.75951677 85.67711003 -18.19897461 84.47705078 C-14.61217854 81.77565955 -14.61217854 81.77565955 -11.3445282 78.71540833 C-7.94467562 75.25061053 -5.43745211 73.8228417 -0.5480957 73.53344727 C1.45640217 73.52631952 3.46116858 73.54946268 5.46508789 73.59814453 C6.53093109 73.59629654 7.59677429 73.59444855 8.69491577 73.59254456 C12.08524333 73.58830684 15.47347844 73.62240399 18.86352539 73.66455078 C22.26056592 73.70136007 25.65630755 73.72906706 29.05355835 73.72584534 C31.16274306 73.72407845 33.27210289 73.74524323 35.38076782 73.792099 C41.3424538 73.82043649 41.3424538 73.82043649 46.36108398 70.75854492 C46.98063965 69.92315186 47.60019531 69.08775879 48.23852539 68.22705078 C48.56852539 67.89705078 48.89852539 67.56705078 49.23852539 67.22705078 C49.6204178 62.2624494 49.39166512 59.16847544 46.23852539 55.22705078 C43.19732366 53.33500199 40.88995809 52.98022311 37.33740234 52.98754883 C36.36571609 52.9838176 35.39402985 52.98008636 34.39289856 52.97624207 C33.34808823 52.98037613 32.30327789 52.98451019 31.22680664 52.98876953 C29.0021912 52.97334474 26.77758171 52.95704073 24.55297852 52.93994141 C21.05520468 52.92351993 17.55786764 52.9145369 14.06005859 52.92163086 C10.67764293 52.92426197 7.29654563 52.89604367 3.91430664 52.86376953 C2.87961746 52.87397629 1.84492828 52.88418304 0.77888489 52.8946991 C-7.0238702 52.79049047 -12.87456946 50.90941062 -18.61430359 45.47172546 C-24.12489748 39.60814687 -26.33755188 33.34690517 -26.26147461 25.35205078 C-26.25575439 24.65096191 -26.25003418 23.94987305 -26.24414062 23.22753906 C-25.96737598 15.17434013 -23.12460736 10.21681403 -17.38647461 4.78955078 C-12.49078495 0.55707031 -6.24788219 -0.02435822 0 0 Z " fill="#FBFBFA" transform="translate(544.761474609375,470.77294921875)"/>
<path d="M0 0 C1.79141418 -0.02421524 1.79141418 -0.02421524 3.61901855 -0.04891968 C6.1370674 -0.07649901 8.65518941 -0.09798882 11.17333984 -0.11376953 C13.74550312 -0.13688352 16.31756772 -0.1779051 18.88916016 -0.23681641 C22.61426641 -0.32209509 26.33653955 -0.35448315 30.0625 -0.375 C31.20746948 -0.41001617 32.35243896 -0.44503235 33.53210449 -0.48110962 C41.33363818 -0.43876543 41.33363818 -0.43876543 44.75585938 2.17681885 C46.54869476 4.19557161 48.05233031 6.22072912 49.53125 8.4765625 C50.51037801 9.78909134 51.4895418 11.10159348 52.46875 12.4140625 C54.53125 15.4765625 54.53125 15.4765625 54.53125 16.4765625 C53.73611496 16.48242874 52.94097992 16.48829498 52.12174988 16.49433899 C44.63195404 16.55221902 37.14249267 16.62426808 29.65299511 16.71227741 C25.80245744 16.75702421 21.95202662 16.79627048 18.10131836 16.82299805 C14.38583435 16.84898857 10.6707606 16.88935985 6.95553017 16.93974876 C5.53739839 16.95644646 4.11919561 16.96794267 2.70097923 16.97417641 C0.7161476 16.98378504 -1.26855582 17.01352534 -3.25317383 17.04418945 C-4.94861076 17.06084404 -4.94861076 17.06084404 -6.67829895 17.07783508 C-9.44603235 17.26966471 -9.44603235 17.26966471 -11.33197021 18.71186829 C-12.79768272 20.9871853 -12.85524204 22.44323135 -12.87280273 25.14404297 C-12.89182899 26.56098953 -12.89182899 26.56098953 -12.91123962 28.00656128 C-12.90830399 29.02533356 -12.90536835 30.04410583 -12.90234375 31.09375 C-12.91020653 32.66771042 -12.91020653 32.66771042 -12.91822815 34.27346802 C-12.92465465 36.49431473 -12.92330327 38.71519545 -12.91479492 40.93603516 C-12.90629976 44.33167364 -12.93501514 47.72562219 -12.96679688 51.12109375 C-12.96840933 53.27864533 -12.9678305 55.43619989 -12.96484375 57.59375 C-12.97607773 58.60847382 -12.98731171 59.62319763 -12.99888611 60.66867065 C-12.98950516 61.61960602 -12.98012421 62.57054138 -12.97045898 63.55029297 C-12.97029282 64.38285614 -12.97012665 65.21541931 -12.96995544 66.07321167 C-12.26214963 69.46724045 -10.97232149 71.10006201 -8.46875 73.4765625 C-5.58000677 74.2342274 -5.58000677 74.2342274 -2.32324219 74.13598633 C-0.46176544 74.16545097 -0.46176544 74.16545097 1.43731689 74.19551086 C2.78633772 74.19206769 4.13535725 74.18808264 5.484375 74.18359375 C6.86873548 74.19671235 8.25307683 74.2120171 9.63739014 74.22941589 C13.27394713 74.26926146 16.91000339 74.27945588 20.54675293 74.28344727 C24.26048976 74.29277979 27.97393249 74.33019389 31.6875 74.36523438 C38.96875249 74.4298053 46.24970475 74.46304915 53.53125 74.4765625 C53.22598892 75.07513565 52.92072784 75.6737088 52.60621643 76.29042053 C51.77619968 77.97841227 51.03449751 79.71000105 50.33178711 81.45483398 C48.2345813 85.38436376 46.44342046 88.2245143 42.53125 90.4765625 C34.86133935 92.41023752 26.74749282 91.90358236 18.90307617 91.65649414 C15.1071934 91.53947693 11.3190081 91.51302462 7.52148438 91.50195312 C5.08846359 91.46885455 2.65550622 91.43061301 0.22265625 91.38671875 C-1.46216103 91.36896141 -1.46216103 91.36896141 -3.18101501 91.35084534 C-12.17306021 91.02892352 -19.61406637 88.79235796 -25.90625 82.1015625 C-31.67451371 75.11077126 -31.94655223 68.04010302 -31.97265625 59.33203125 C-31.98264145 58.16706619 -31.99262665 57.00210114 -32.00291443 55.80183411 C-32.01806316 53.34342995 -32.02514123 50.88496445 -32.0246582 48.42651367 C-32.03121105 44.68629144 -32.08571006 40.94873659 -32.14257812 37.20898438 C-32.15138299 34.81250901 -32.15733533 32.41602113 -32.16015625 30.01953125 C-32.1817128 28.9119194 -32.20326935 27.80430756 -32.22547913 26.66313171 C-32.15096958 18.12412617 -29.69466483 12.20893074 -23.99513245 5.82633972 C-17.24725403 -0.39556191 -8.61274492 0.11113268 0 0 Z " fill="#F9FAF9" transform="translate(658.46875,470.5234375)"/>
<path d="M0 0 C6.67100746 -1.19718977 13.45910745 -2.27438086 20 0 C25.39916878 4.50676532 28.40713508 11.1806204 31.57275391 17.33544922 C33.69768651 21.3025232 36.23523413 24.94246763 38.8125 28.625 C43 34.69947936 43 34.69947936 43 37 C47.21192625 33.11323143 50.1525611 28.96628 53.1875 24.125 C53.67033447 23.38773682 54.15316895 22.65047363 54.65063477 21.89086914 C57.06231753 18.19174373 59.28883323 14.51689703 61.234375 10.55078125 C65.44781281 2.43018326 65.44781281 2.43018326 69 0 C75.52447597 -1.73683658 82.39358259 -0.93759199 89 0 C83.76250241 9.29571975 78.01786985 18.15559003 72.0625 27 C71.19823612 28.28884021 70.33430265 29.57790204 69.47070312 30.8671875 C68.833871 31.8155246 68.833871 31.8155246 68.18417358 32.78302002 C67.33658486 34.05004811 66.49363816 35.32019417 65.65542603 36.59344482 C63.73954352 39.49045315 61.80650547 42.24030708 59.62451172 44.95019531 C52.7101547 53.83545998 52.86521264 61.95417422 53 72.75 C52.99189017 74.4297088 52.98019652 76.10940428 52.96484375 77.7890625 C52.92869362 81.86197663 52.96582543 85.92468308 53 90 C47.06 90 41.12 90 35 90 C35.04382813 87.57527344 35.08765625 85.15054688 35.1328125 82.65234375 C35.19092682 76.06629673 35.10599993 69.49042987 34.8203125 62.91015625 C34.79977814 62.1425145 34.77924377 61.37487274 34.75808716 60.58396912 C34.33743131 52.50058365 31.13395788 46.9214822 25.73974609 41.07958984 C22.20406853 36.85324947 19.38730248 32.08197767 16.43139648 27.44024658 C14.65664451 24.66010517 12.85456647 21.89808447 11.05078125 19.13671875 C10.04072021 17.58863525 10.04072021 17.58863525 9.01025391 16.00927734 C6.51784211 12.27822708 3.90289219 8.64464585 1.23901367 5.03442383 C0 3 0 3 0 0 Z " fill="#F9F9F8" transform="translate(419,471)"/>
<path d="M0 0 C0.99 0.33 1.98 0.66 3 1 C3 2.32 3 3.64 3 5 C1.68 5 0.36 5 -1 5 C-1.66 6.32 -2.32 7.64 -3 9 C-6.63 12.96 -10.26 16.92 -14 21 C1.84 21.33 17.68 21.66 34 22 C34 22.33 34 22.66 34 23 C33.40461426 23.02505615 32.80922852 23.0501123 32.19580078 23.07592773 C29.50530864 23.19177494 26.8151766 23.31455196 24.125 23.4375 C22.71927734 23.49647461 22.71927734 23.49647461 21.28515625 23.55664062 C20.38925781 23.59853516 19.49335937 23.64042969 18.5703125 23.68359375 C17.32918701 23.73858032 17.32918701 23.73858032 16.06298828 23.79467773 C13.93820571 23.88238327 13.93820571 23.88238327 12 25 C12 24.34 12 23.68 12 23 C11.319375 23.0721875 10.63875 23.144375 9.9375 23.21875 C8.4834375 23.35796875 8.4834375 23.35796875 7 23.5 C5.906875 23.60828125 4.81375 23.7165625 3.6875 23.828125 C0.38475358 23.98206657 -2.67808191 23.7351799 -5.95874023 23.4074707 C-10.09011433 23.08876047 -14.07673709 22.78897663 -17.73779297 25.09423828 C-21.18782385 28.07188825 -23.95752007 31.57628456 -26.67138672 35.22070312 C-27.93566387 36.91384018 -29.24721608 38.5470221 -30.59765625 40.171875 C-32.10501888 41.98561215 -33.59603852 43.81319245 -35.0625 45.66015625 C-38.88751803 50.27948245 -38.88751803 50.27948245 -41 52 C-43.7348161 51.96856533 -44.72598527 51.25649781 -46.7109375 49.3984375 C-47.53464844 48.39683594 -47.53464844 48.39683594 -48.375 47.375 C-48.97441406 46.65957031 -49.57382812 45.94414062 -50.19140625 45.20703125 C-51.08666016 44.11455078 -51.08666016 44.11455078 -52 43 C-53.10024818 41.68421346 -54.20410734 40.37143315 -55.3125 39.0625 C-55.78300781 38.49660156 -56.25351562 37.93070312 -56.73828125 37.34765625 C-57.97950473 35.86554616 -57.97950473 35.86554616 -60 35 C-60.33 34.67 -60.66 34.34 -61 34 C-61.78375 34.495 -62.5675 34.99 -63.375 35.5 C-66 37 -66 37 -68 37 C-68 35.35 -68 33.7 -68 32 C-67.278125 31.79375 -66.55625 31.5875 -65.8125 31.375 C-62.0744694 29.54751837 -60.50753083 27.29561194 -58 24 C-61.63 24 -65.26 24 -69 24 C-69.66 25.32 -70.32 26.64 -71 28 C-71 25 -71 25 -70 23 C-76.04797903 22.82006457 -82.08900715 22.72797885 -88.13964844 22.71313477 C-90.19205901 22.69621929 -92.24442539 22.65633454 -94.29589844 22.59204102 C-106.92541268 21.83992408 -106.92541268 21.83992408 -117.99414062 26.87744141 C-121.07479589 29.98416138 -123.53086073 33.39732204 -126 37 C-126.96854618 38.0304942 -127.95109307 39.05142515 -129 40 C-127.59132499 35.71239355 -125.51792965 33.08082102 -122.4375 29.8125 C-119.35814202 26.65811063 -119.35814202 26.65811063 -117 23 C-120.89986907 22.68655258 -124.24408675 22.85330462 -128 24 C-131.60799722 27.23983423 -134.21093929 31.05449948 -137 35 C-138.33237763 36.58112095 -139.68420582 38.14624118 -141.0625 39.6875 C-141.63097656 40.33074219 -142.19945312 40.97398437 -142.78515625 41.63671875 C-143.18605469 42.08660156 -143.58695313 42.53648437 -144 43 C-144.99 42.505 -144.99 42.505 -146 42 C-145.59910156 41.55011719 -145.19820312 41.10023438 -144.78515625 40.63671875 C-139.68907803 34.87040802 -134.88472913 28.9702245 -130 23 C-155.74 23 -181.48 23 -208 23 C-208 22.67 -208 22.34 -208 22 C-206.60974609 21.92652344 -206.60974609 21.92652344 -205.19140625 21.8515625 C-203.99386719 21.77679688 -202.79632813 21.70203125 -201.5625 21.625 C-199.77005859 21.52058594 -199.77005859 21.52058594 -197.94140625 21.4140625 C-196.97074219 21.27742188 -196.00007813 21.14078125 -195 21 C-194.67 20.34 -194.34 19.68 -194 19 C-193.34 19.66 -192.68 20.32 -192 21 C-188.92303204 21.29570855 -188.92303204 21.29570855 -185.3125 21.23046875 C-184.65419189 21.23001053 -183.99588379 21.22955231 -183.31762695 21.2290802 C-181.92560016 21.22605881 -180.53357672 21.21817581 -179.14160156 21.20581055 C-177.00834197 21.18757132 -174.87551687 21.18530076 -172.7421875 21.18554688 C-166.17257694 21.54469066 -166.17257694 21.54469066 -160 20 C-160 20.66 -160 21.32 -160 22 C-155.60584553 22.10518025 -151.21744922 22.1431285 -146.82250977 22.12207031 C-145.33181887 22.12400272 -143.84103362 22.14347668 -142.35083008 22.18164062 C-133.19989581 22.50730409 -133.19989581 22.50730409 -125.06201172 18.83886719 C-122.78768748 16.32904555 -120.86681931 13.82180363 -119 11 C-117.39672852 8.67626953 -117.39672852 8.67626953 -116 7 C-115.34 7 -114.68 7 -114 7 C-115.57780923 10.71045247 -117.90703248 13.29906384 -120.625 16.25 C-121.44226563 17.14203125 -122.25953125 18.0340625 -123.1015625 18.953125 C-123.72804688 19.62859375 -124.35453125 20.3040625 -125 21 C-121.41351941 21.84021671 -118.57427201 21.96321201 -115 21 C-110.66770987 17.71503181 -107.32973112 13.25395307 -104 9 C-104 12.96130371 -105.34877125 13.82914401 -108 16.6875 C-108.7425 17.49574219 -109.485 18.30398438 -110.25 19.13671875 C-111.11625 20.05904297 -111.11625 20.05904297 -112 21 C-105.89888085 21.27334421 -99.80137041 21.47214996 -93.69555664 21.60424805 C-91.62233367 21.65933797 -89.54953371 21.73423996 -87.4777832 21.82983398 C-75.30375789 22.97541498 -75.30375789 22.97541498 -64.58154297 18.50244141 C-62.33715347 15.75929869 -60.5657461 13.17279018 -59 10 C-59.91080322 10.05752441 -60.82160645 10.11504883 -61.76000977 10.17431641 C-63.93245443 10.31152344 -66.10489909 10.44873047 -68.27734375 10.5859375 C-69.17582031 10.72257812 -70.07429687 10.85921875 -71 11 C-71.33 11.66 -71.66 12.32 -72 13 C-73.98 13 -75.96 13 -78 13 C-78.33 12.34 -78.66 11.68 -79 11 C-81.8159849 10.53101037 -81.8159849 10.53101037 -85.0625 10.375 C-86.71958984 10.26285156 -86.71958984 10.26285156 -88.41015625 10.1484375 C-89.26480469 10.09945313 -90.11945313 10.05046875 -91 10 C-91 9.34 -91 8.68 -91 8 C-89.75283203 8.05220703 -89.75283203 8.05220703 -88.48046875 8.10546875 C-87.39378906 8.13253906 -86.30710937 8.15960938 -85.1875 8.1875 C-84.10855469 8.22230469 -83.02960938 8.25710938 -81.91796875 8.29296875 C-78.98051156 8.26536952 -78.98051156 8.26536952 -77.11328125 6.48828125 C-76.74589844 5.99714844 -76.37851562 5.50601562 -76 5 C-74.35 5.66 -72.7 6.32 -71 7 C-71 7.66 -71 8.32 -71 9 C-68.72858891 8.88597936 -66.45785448 8.75841495 -64.1875 8.625 C-62.29064453 8.52058594 -62.29064453 8.52058594 -60.35546875 8.4140625 C-56.87244766 8.23897061 -56.87244766 8.23897061 -54 6 C-55.6281644 9.75730247 -58.01401917 12.616823 -60.625 15.75 C-61.85089844 17.22726562 -61.85089844 17.22726562 -63.1015625 18.734375 C-63.72804688 19.48203125 -64.35453125 20.2296875 -65 21 C-63.39620659 21.05416188 -61.79188594 21.09286638 -60.1875 21.125 C-59.29417969 21.14820313 -58.40085937 21.17140625 -57.48046875 21.1953125 C-54.74597286 21.18285827 -54.74597286 21.18285827 -52 19 C-52 19.66 -52 20.32 -52 21 C-41.11 21.495 -41.11 21.495 -30 22 C-29.34 20.68 -28.68 19.36 -28 18 C-26.2734375 16.078125 -26.2734375 16.078125 -24.375 14.25 C-23.74335937 13.63640625 -23.11171875 13.0228125 -22.4609375 12.390625 C-21.97882813 11.93171875 -21.49671875 11.4728125 -21 11 C-21 14 -21 14 -22.53125 15.82421875 C-23.1809375 16.43910156 -23.830625 17.05398438 -24.5 17.6875 C-25.1496875 18.31011719 -25.799375 18.93273437 -26.46875 19.57421875 C-27.22671875 20.27998047 -27.22671875 20.27998047 -28 21 C-24.10267108 21.81414221 -20.88697551 21.93806958 -17 21 C-9.95142102 15.40750905 -4.59263503 7.67376992 0 0 Z " fill="#272F35" transform="translate(658,422)"/>
<path d="M0 0 C0.33 0 0.66 0 1 0 C1.99263248 5.50614083 2.74473786 11.03141703 -0.17919922 16.00634766 C-3.27829576 20.08918858 -6.84129724 23.73328005 -10.43994141 27.37451172 C-13.29109952 30.34524892 -15.61186521 33.65661129 -18 37 C-12.87432652 37.23555485 -8.60583848 37.36175103 -4.55859375 33.9296875 C-3.17589317 32.30507798 -1.83903452 30.63996077 -0.55859375 28.93359375 C-0.04425781 28.29550781 0.47007812 27.65742187 1 27 C1.66 27 2.32 27 3 27 C1.33248852 30.94139078 -1.22710649 33.7892812 -4 37 C3.07121902 37.23316434 3.07121902 37.23316434 9.25390625 34.2578125 C11.88580978 31.25777215 13.73139769 28.80580694 15 25 C13.02 25 11.04 25 9 25 C9.33 24.34 9.66 23.68 10 23 C33.76 23.33 57.52 23.66 82 24 C82 24.33 82 24.66 82 25 C60.55 25 39.1 25 17 25 C16.34 26.65 15.68 28.3 15 30 C13.35 31.98 11.7 33.96 10 36 C36.4 36.33 62.8 36.66 90 37 C90.66 35.68 91.32 34.36 92 33 C94.125 31.25 94.125 31.25 96 30 C94.62594577 32.95950142 92.98223068 35.41495396 91 38 C98.90792482 37.99388572 98.90792482 37.99388572 105.6875 34.4375 C106.8321875 33.2309375 106.8321875 33.2309375 108 32 C107.34 33.32 106.68 34.64 106 36 C129.76 36.33 153.52 36.66 178 37 C178 37.66 178 38.32 178 39 C176.60510849 38.98215202 176.60510849 38.98215202 175.18203735 38.96394348 C166.3846651 38.85862393 157.58863194 38.81184179 148.79061317 38.82121754 C144.26797241 38.82418679 139.74732355 38.80709842 135.22509766 38.74291992 C130.85407482 38.681646 126.48592436 38.67469511 122.11460495 38.70416832 C120.45370945 38.70606046 118.7926716 38.68893048 117.1321907 38.65177345 C107.2409988 38.24815069 107.2409988 38.24815069 98.68670654 42.53549194 C96.14548031 45.13819771 94.01389178 47.96921099 92 51 C92 47.22089522 92.99703962 46.53893899 95.5 43.8125 C96.1496875 43.09707031 96.799375 42.38164063 97.46875 41.64453125 C98.22671875 40.83048828 98.22671875 40.83048828 99 40 C97.41753293 39.91846067 95.83383727 39.86056443 94.25 39.8125 C93.36828125 39.77769531 92.4865625 39.74289062 91.578125 39.70703125 C88.55328417 40.05076316 87.24416398 41.00227459 85 43 C85.33 42.01 85.66 41.02 86 40 C65.21 40 44.42 40 23 40 C24.98 42.31 26.96 44.62 29 47 C28.505 47.99 28.505 47.99 28 49 C26.82739389 47.71372289 25.6620717 46.42080217 24.5 45.125 C23.8503125 44.40570312 23.200625 43.68640625 22.53125 42.9453125 C21 41 21 41 21 39 C11.59511746 38.50411574 11.59511746 38.50411574 3.22265625 42.0703125 C1.2909871 44.29889282 -0.42473395 46.50876456 -2 49 C-2 44.61031544 0.12805101 43.23094261 3 40 C1.39667209 39.91878076 -0.20784026 39.86070866 -1.8125 39.8125 C-2.70582031 39.77769531 -3.59914063 39.74289062 -4.51953125 39.70703125 C-7.41647515 40.04918998 -8.22555028 40.75393573 -10 43 C-9.67 41.68 -9.34 40.36 -9 39 C-10.93816735 39.1141866 -12.87555099 39.24173423 -14.8125 39.375 C-15.89144531 39.44460938 -16.97039062 39.51421875 -18.08203125 39.5859375 C-21.18626186 39.81195733 -21.18626186 39.81195733 -24 42 C-24 41.34 -24 40.68 -24 40 C-43.8 39.505 -43.8 39.505 -64 39 C-64 38.67 -64 38.34 -64 38 C-62.78006348 38.02731201 -61.56012695 38.05462402 -60.30322266 38.08276367 C-55.73668763 38.17020869 -51.17226556 38.18417491 -46.60498047 38.17700195 C-44.63606174 38.18393817 -42.66710505 38.21027658 -40.69873047 38.25708008 C-28.99955642 38.98096969 -28.99955642 38.98096969 -18.59277344 34.68432617 C-16.0649957 31.91854339 -14.01430678 29.15331974 -12 26 C-11.05996902 24.84809981 -10.10539979 23.70758636 -9.125 22.58984375 C-8.42375 21.71457031 -7.7225 20.83929687 -7 19.9375 C-3.16788321 15.16788321 -3.16788321 15.16788321 -1 13 C-0.53513282 9.87803664 -0.53513282 9.87803664 -0.375 6.375 C-0.30023437 5.18648437 -0.22546875 3.99796875 -0.1484375 2.7734375 C-0.09945312 1.85820313 -0.05046875 0.94296875 0 0 Z " fill="#9B9579" transform="translate(513,536)"/>
<path d="M0 0 C0.99 0.33 1.98 0.66 3 1 C3 2.32 3 3.64 3 5 C1.68 5 0.36 5 -1 5 C-1.66 6.32 -2.32 7.64 -3 9 C-6.63 12.96 -10.26 16.92 -14 21 C1.84 21.33 17.68 21.66 34 22 C34 22.33 34 22.66 34 23 C33.40461426 23.02505615 32.80922852 23.0501123 32.19580078 23.07592773 C29.50530864 23.19177494 26.8151766 23.31455196 24.125 23.4375 C22.71927734 23.49647461 22.71927734 23.49647461 21.28515625 23.55664062 C20.38925781 23.59853516 19.49335937 23.64042969 18.5703125 23.68359375 C17.32918701 23.73858032 17.32918701 23.73858032 16.06298828 23.79467773 C13.93820571 23.88238327 13.93820571 23.88238327 12 25 C12 24.34 12 23.68 12 23 C11.319375 23.0721875 10.63875 23.144375 9.9375 23.21875 C8.4834375 23.35796875 8.4834375 23.35796875 7 23.5 C5.906875 23.60828125 4.81375 23.7165625 3.6875 23.828125 C0.38475358 23.98206657 -2.67808191 23.7351799 -5.95874023 23.4074707 C-10.09011433 23.08876047 -14.07673709 22.78897663 -17.73779297 25.09423828 C-21.18782385 28.07188825 -23.95752007 31.57628456 -26.67138672 35.22070312 C-27.93566387 36.91384018 -29.24721608 38.5470221 -30.59765625 40.171875 C-32.10501888 41.98561215 -33.59603852 43.81319245 -35.0625 45.66015625 C-36.94247678 47.93053143 -38.7930898 50.04387505 -41 52 C-43.25 51.75 -43.25 51.75 -45 51 C-44.67 50.34 -44.34 49.68 -44 49 C-43.38125 48.85949219 -42.7625 48.71898437 -42.125 48.57421875 C-39.47233446 47.85741391 -38.72948167 46.92480964 -37 44.8125 C-36.11248047 43.74902344 -36.11248047 43.74902344 -35.20703125 42.6640625 C-34.47871094 41.78492188 -33.75039063 40.90578125 -33 40 C-31.98552685 38.81820157 -30.96840303 37.63867546 -29.94921875 36.4609375 C-28.86193963 35.20315918 -27.77470024 33.94534651 -26.6875 32.6875 C-26.15962891 32.07688721 -25.63175781 31.46627441 -25.08789062 30.8371582 C-24.58837891 30.25538818 -24.08886719 29.67361816 -23.57421875 29.07421875 C-23.12651123 28.55432373 -22.67880371 28.03442871 -22.2175293 27.4987793 C-21.0550669 26.06778739 -20.02267472 24.53401208 -19 23 C-22.96 23 -26.92 23 -31 23 C-31.66 24.32 -32.32 25.64 -33 27 C-34.3050581 28.68889872 -35.63360658 30.3603279 -37 32 C-37.66 31.67 -38.32 31.34 -39 31 C-37.02 28.69 -35.04 26.38 -33 24 C-36.62498334 23.97106068 -40.24993713 23.95322208 -43.875 23.9375 C-44.90753906 23.92912109 -45.94007813 23.92074219 -47.00390625 23.91210938 C-47.99003906 23.90888672 -48.97617187 23.90566406 -49.9921875 23.90234375 C-50.90339355 23.89710693 -51.81459961 23.89187012 -52.75341797 23.88647461 C-55.03687509 23.85114435 -55.03687509 23.85114435 -57 25 C-57 24.34 -57 23.68 -57 23 C-64.31873297 23.03259646 -64.31873297 23.03259646 -70.6875 26.0625 C-71.120625 26.701875 -71.55375 27.34125 -72 28 C-71.01 25.525 -71.01 25.525 -70 23 C-76.04797903 22.82006457 -82.08900715 22.72797885 -88.13964844 22.71313477 C-90.19205901 22.69621929 -92.24442539 22.65633454 -94.29589844 22.59204102 C-106.92541268 21.83992408 -106.92541268 21.83992408 -117.99414062 26.87744141 C-121.07479589 29.98416138 -123.53086073 33.39732204 -126 37 C-126.96854618 38.0304942 -127.95109307 39.05142515 -129 40 C-127.59132499 35.71239355 -125.51792965 33.08082102 -122.4375 29.8125 C-119.35814202 26.65811063 -119.35814202 26.65811063 -117 23 C-120.89986907 22.68655258 -124.24408675 22.85330462 -128 24 C-131.60799722 27.23983423 -134.21093929 31.05449948 -137 35 C-138.33237763 36.58112095 -139.68420582 38.14624118 -141.0625 39.6875 C-141.63097656 40.33074219 -142.19945312 40.97398437 -142.78515625 41.63671875 C-143.18605469 42.08660156 -143.58695313 42.53648437 -144 43 C-144.99 42.505 -144.99 42.505 -146 42 C-145.59910156 41.55011719 -145.19820312 41.10023438 -144.78515625 40.63671875 C-139.68907803 34.87040802 -134.88472913 28.9702245 -130 23 C-155.74 23 -181.48 23 -208 23 C-208 22.67 -208 22.34 -208 22 C-206.60974609 21.92652344 -206.60974609 21.92652344 -205.19140625 21.8515625 C-203.99386719 21.77679688 -202.79632813 21.70203125 -201.5625 21.625 C-199.77005859 21.52058594 -199.77005859 21.52058594 -197.94140625 21.4140625 C-196.97074219 21.27742188 -196.00007813 21.14078125 -195 21 C-194.67 20.34 -194.34 19.68 -194 19 C-193.34 19.66 -192.68 20.32 -192 21 C-188.92303204 21.29570855 -188.92303204 21.29570855 -185.3125 21.23046875 C-184.65419189 21.23001053 -183.99588379 21.22955231 -183.31762695 21.2290802 C-181.92560016 21.22605881 -180.53357672 21.21817581 -179.14160156 21.20581055 C-177.00834197 21.18757132 -174.87551687 21.18530076 -172.7421875 21.18554688 C-166.17257694 21.54469066 -166.17257694 21.54469066 -160 20 C-160 20.66 -160 21.32 -160 22 C-155.60584553 22.10518025 -151.21744922 22.1431285 -146.82250977 22.12207031 C-145.33181887 22.12400272 -143.84103362 22.14347668 -142.35083008 22.18164062 C-133.19989581 22.50730409 -133.19989581 22.50730409 -125.06201172 18.83886719 C-122.78768748 16.32904555 -120.86681931 13.82180363 -119 11 C-117.39672852 8.67626953 -117.39672852 8.67626953 -116 7 C-115.34 7 -114.68 7 -114 7 C-115.57780923 10.71045247 -117.90703248 13.29906384 -120.625 16.25 C-121.44226563 17.14203125 -122.25953125 18.0340625 -123.1015625 18.953125 C-123.72804688 19.62859375 -124.35453125 20.3040625 -125 21 C-121.41351941 21.84021671 -118.57427201 21.96321201 -115 21 C-110.66770987 17.71503181 -107.32973112 13.25395307 -104 9 C-104 12.96130371 -105.34877125 13.82914401 -108 16.6875 C-108.7425 17.49574219 -109.485 18.30398438 -110.25 19.13671875 C-111.11625 20.05904297 -111.11625 20.05904297 -112 21 C-105.89888085 21.27334421 -99.80137041 21.47214996 -93.69555664 21.60424805 C-91.62233367 21.65933797 -89.54953371 21.73423996 -87.4777832 21.82983398 C-75.30375789 22.97541498 -75.30375789 22.97541498 -64.58154297 18.50244141 C-62.33715347 15.75929869 -60.5657461 13.17279018 -59 10 C-59.91080322 10.05752441 -60.82160645 10.11504883 -61.76000977 10.17431641 C-63.93245443 10.31152344 -66.10489909 10.44873047 -68.27734375 10.5859375 C-69.17582031 10.72257812 -70.07429687 10.85921875 -71 11 C-71.33 11.66 -71.66 12.32 -72 13 C-73.98 13 -75.96 13 -78 13 C-78.33 12.34 -78.66 11.68 -79 11 C-81.8159849 10.53101037 -81.8159849 10.53101037 -85.0625 10.375 C-86.71958984 10.26285156 -86.71958984 10.26285156 -88.41015625 10.1484375 C-89.26480469 10.09945313 -90.11945313 10.05046875 -91 10 C-91 9.34 -91 8.68 -91 8 C-89.75283203 8.05220703 -89.75283203 8.05220703 -88.48046875 8.10546875 C-87.39378906 8.13253906 -86.30710937 8.15960938 -85.1875 8.1875 C-84.10855469 8.22230469 -83.02960938 8.25710938 -81.91796875 8.29296875 C-78.98051156 8.26536952 -78.98051156 8.26536952 -77.11328125 6.48828125 C-76.74589844 5.99714844 -76.37851562 5.50601562 -76 5 C-74.35 5.66 -72.7 6.32 -71 7 C-71 7.66 -71 8.32 -71 9 C-68.72858891 8.88597936 -66.45785448 8.75841495 -64.1875 8.625 C-62.29064453 8.52058594 -62.29064453 8.52058594 -60.35546875 8.4140625 C-56.87244766 8.23897061 -56.87244766 8.23897061 -54 6 C-55.6281644 9.75730247 -58.01401917 12.616823 -60.625 15.75 C-61.85089844 17.22726562 -61.85089844 17.22726562 -63.1015625 18.734375 C-63.72804688 19.48203125 -64.35453125 20.2296875 -65 21 C-63.39620659 21.05416188 -61.79188594 21.09286638 -60.1875 21.125 C-59.29417969 21.14820313 -58.40085937 21.17140625 -57.48046875 21.1953125 C-54.74597286 21.18285827 -54.74597286 21.18285827 -52 19 C-52 19.66 -52 20.32 -52 21 C-41.11 21.495 -41.11 21.495 -30 22 C-29.34 20.68 -28.68 19.36 -28 18 C-26.2734375 16.078125 -26.2734375 16.078125 -24.375 14.25 C-23.74335937 13.63640625 -23.11171875 13.0228125 -22.4609375 12.390625 C-21.97882813 11.93171875 -21.49671875 11.4728125 -21 11 C-21 14 -21 14 -22.53125 15.82421875 C-23.1809375 16.43910156 -23.830625 17.05398438 -24.5 17.6875 C-25.1496875 18.31011719 -25.799375 18.93273437 -26.46875 19.57421875 C-27.22671875 20.27998047 -27.22671875 20.27998047 -28 21 C-24.10267108 21.81414221 -20.88697551 21.93806958 -17 21 C-9.95142102 15.40750905 -4.59263503 7.67376992 0 0 Z " fill="#BEB189" transform="translate(658,422)"/>
<path d="M0 0 C1.95123024 0.00022659 1.95123024 0.00022659 3.94187927 0.00045776 C5.34154416 0.01066797 6.74120744 0.02109991 8.14086914 0.03173828 C9.58817854 0.03547345 11.0354905 0.03831804 12.48280334 0.04031372 C16.27217726 0.04791054 20.06139524 0.06752453 23.85070801 0.08972168 C27.72540173 0.11026575 31.60012091 0.11933366 35.47485352 0.12939453 C43.06281485 0.15077462 50.65064818 0.18486216 58.23852539 0.22705078 C57.90852539 0.88705078 57.57852539 1.54705078 57.23852539 2.22705078 C54.26852539 1.89705078 51.29852539 1.56705078 48.23852539 1.22705078 C48.23852539 1.88705078 48.23852539 2.54705078 48.23852539 3.22705078 C41.28079248 6.58595632 34.85818323 6.69066263 27.20214844 6.61816406 C25.17648267 6.60205442 23.15280314 6.61808598 21.12719727 6.63720703 C14.29445991 6.61680065 9.31035826 6.33602403 3.23852539 3.22705078 C0.3314383 2.79878243 0.3314383 2.79878243 -2.44897461 2.91455078 C-3.81602539 2.92035156 -3.81602539 2.92035156 -5.21069336 2.92626953 C-7.85801305 3.23843433 -9.4167317 4.02841439 -11.76147461 5.22705078 C-13.08147461 5.22705078 -14.40147461 5.22705078 -15.76147461 5.22705078 C-15.98834961 5.80455078 -16.21522461 6.38205078 -16.44897461 6.97705078 C-18.09185484 9.79341689 -20.15680687 11.30782192 -22.76147461 13.22705078 C-21.40732937 8.111391 -18.15866241 4.95827308 -13.76147461 2.22705078 C-9.04254428 0.6561592 -4.96344135 -0.01935065 0 0 Z " fill="#FEFCDC" transform="translate(544.761474609375,470.77294921875)"/>
<path d="M0 0 C0.33 0 0.66 0 1 0 C1.99263248 5.50614083 2.74473786 11.03141703 -0.17919922 16.00634766 C-3.27829576 20.08918858 -6.84129724 23.73328005 -10.43994141 27.37451172 C-13.29109952 30.34524892 -15.61186521 33.65661129 -18 37 C-12.87432652 37.23555485 -8.60583848 37.36175103 -4.55859375 33.9296875 C-3.17589317 32.30507798 -1.83903452 30.63996077 -0.55859375 28.93359375 C-0.04425781 28.29550781 0.47007812 27.65742187 1 27 C1.66 27 2.32 27 3 27 C1.33248852 30.94139078 -1.22710649 33.7892812 -4 37 C3.07121902 37.23316434 3.07121902 37.23316434 9.25390625 34.2578125 C11.88580978 31.25777215 13.73139769 28.80580694 15 25 C13.02 25 11.04 25 9 25 C9.33 24.34 9.66 23.68 10 23 C33.76 23.33 57.52 23.66 82 24 C82 24.33 82 24.66 82 25 C60.55 25 39.1 25 17 25 C16.34 26.65 15.68 28.3 15 30 C13.29328217 32.0469459 11.59250229 33.96162044 9.75 35.875 C8.75827625 36.92889926 7.76738583 37.98358332 6.77734375 39.0390625 C6.30022949 39.54469727 5.82311523 40.05033203 5.33154297 40.57128906 C2.78975384 43.29856262 0.39881954 46.14734974 -2 49 C-2 44.61031544 0.12805101 43.23094261 3 40 C1.39667209 39.91878076 -0.20784026 39.86070866 -1.8125 39.8125 C-2.70582031 39.77769531 -3.59914063 39.74289062 -4.51953125 39.70703125 C-7.41647515 40.04918998 -8.22555028 40.75393573 -10 43 C-9.67 41.68 -9.34 40.36 -9 39 C-10.93816735 39.1141866 -12.87555099 39.24173423 -14.8125 39.375 C-15.89144531 39.44460938 -16.97039062 39.51421875 -18.08203125 39.5859375 C-21.18626186 39.81195733 -21.18626186 39.81195733 -24 42 C-24 41.34 -24 40.68 -24 40 C-43.8 39.505 -43.8 39.505 -64 39 C-64 38.67 -64 38.34 -64 38 C-62.78006348 38.02731201 -61.56012695 38.05462402 -60.30322266 38.08276367 C-55.73668763 38.17020869 -51.17226556 38.18417491 -46.60498047 38.17700195 C-44.63606174 38.18393817 -42.66710505 38.21027658 -40.69873047 38.25708008 C-28.99955642 38.98096969 -28.99955642 38.98096969 -18.59277344 34.68432617 C-16.0649957 31.91854339 -14.01430678 29.15331974 -12 26 C-11.05996902 24.84809981 -10.10539979 23.70758636 -9.125 22.58984375 C-8.42375 21.71457031 -7.7225 20.83929687 -7 19.9375 C-3.16788321 15.16788321 -3.16788321 15.16788321 -1 13 C-0.53513282 9.87803664 -0.53513282 9.87803664 -0.375 6.375 C-0.30023437 5.18648437 -0.22546875 3.99796875 -0.1484375 2.7734375 C-0.09945312 1.85820313 -0.05046875 0.94296875 0 0 Z " fill="#C1C0AE" transform="translate(513,536)"/>
<path d="M0 0 C0.66 0 1.32 0 2 0 C2 9.24 2 18.48 2 28 C3.65 26.68 5.3 25.36 7 24 C5.38738209 27.83223246 2.91908336 30.51553966 0.125 33.5625 C-0.73867188 34.51253906 -1.60234375 35.46257812 -2.4921875 36.44140625 C-7.81922867 41.87631585 -7.81922867 41.87631585 -11.796875 42.29296875 C-12.77140625 42.25816406 -13.7459375 42.22335937 -14.75 42.1875 C-15.73484375 42.16042969 -16.7196875 42.13335937 -17.734375 42.10546875 C-18.48203125 42.07066406 -19.2296875 42.03585937 -20 42 C-16 36.66666667 -12 31.33333333 -8 26 C-7.34 26.33 -6.68 26.66 -6 27 C-4.42726432 24.1575146 -4.42726432 24.1575146 -4 21 C-3.01 21.33 -2.02 21.66 -1 22 C-0.67 14.74 -0.34 7.48 0 0 Z " fill="#56564F" transform="translate(612,402)"/>
<path d="M0 0 C0.66 0 1.32 0 2 0 C0.42219077 3.71045247 -1.90703248 6.29906384 -4.625 9.25 C-5.44226563 10.14203125 -6.25953125 11.0340625 -7.1015625 11.953125 C-7.72804688 12.62859375 -8.35453125 13.3040625 -9 14 C-5.41351941 14.84021671 -2.57427201 14.96321201 1 14 C5.33229013 10.71503181 8.67026888 6.25395307 12 2 C12 5.96130371 10.65122875 6.82914401 8 9.6875 C7.2575 10.49574219 6.515 11.30398438 5.75 12.13671875 C5.1725 12.75160156 4.595 13.36648438 4 14 C4.495 14.99 4.495 14.99 5 16 C4.28070312 16.3815625 3.56140625 16.763125 2.8203125 17.15625 C-0.39923564 19.26099615 -2.588242 21.61414686 -5.125 24.5 C-10.52565661 30.60651751 -10.52565661 30.60651751 -13 33 C-11.59132499 28.71239355 -9.51792965 26.08082102 -6.4375 22.8125 C-3.35814202 19.65811063 -3.35814202 19.65811063 -1 16 C-4.89986907 15.68655258 -8.24408675 15.85330462 -12 17 C-15.60799722 20.23983423 -18.21093929 24.05449948 -21 28 C-22.33237763 29.58112095 -23.68420582 31.14624118 -25.0625 32.6875 C-25.63097656 33.33074219 -26.19945312 33.97398437 -26.78515625 34.63671875 C-27.18605469 35.08660156 -27.58695313 35.53648437 -28 36 C-28.99 35.505 -28.99 35.505 -30 35 C-29.59910156 34.55011719 -29.19820312 34.10023438 -28.78515625 33.63671875 C-23.68907803 27.87040802 -18.88472913 21.9702245 -14 16 C-39.74 16 -65.48 16 -92 16 C-92 15.67 -92 15.34 -92 15 C-90.60974609 14.92652344 -90.60974609 14.92652344 -89.19140625 14.8515625 C-87.99386719 14.77679688 -86.79632813 14.70203125 -85.5625 14.625 C-84.36753906 14.55539062 -83.17257812 14.48578125 -81.94140625 14.4140625 C-80.97074219 14.27742188 -80.00007813 14.14078125 -79 14 C-78.67 13.34 -78.34 12.68 -78 12 C-77.34 12.66 -76.68 13.32 -76 14 C-72.92303204 14.29570855 -72.92303204 14.29570855 -69.3125 14.23046875 C-68.65419189 14.23001053 -67.99588379 14.22955231 -67.31762695 14.2290802 C-65.92560016 14.22605881 -64.53357672 14.21817581 -63.14160156 14.20581055 C-61.00834197 14.18757132 -58.87551687 14.18530076 -56.7421875 14.18554688 C-50.17257694 14.54469066 -50.17257694 14.54469066 -44 13 C-44 13.66 -44 14.32 -44 15 C-39.60584553 15.10518025 -35.21744922 15.1431285 -30.82250977 15.12207031 C-29.33181887 15.12400272 -27.84103362 15.14347668 -26.35083008 15.18164062 C-17.19989581 15.50730409 -17.19989581 15.50730409 -9.06201172 11.83886719 C-6.78768748 9.32904555 -4.86681931 6.82180363 -3 4 C-1.39672852 1.67626953 -1.39672852 1.67626953 0 0 Z " fill="#C2B696" transform="translate(542,429)"/>
<path d="M0 0 C25.74 0 51.48 0 78 0 C77.67 0.66 77.34 1.32 77 2 C59.675 1.505 59.675 1.505 42 1 C45.13175686 6.77260299 45.13175686 6.77260299 48 8 C48 8.66 48 9.32 48 10 C47.236875 9.95875 46.47375 9.9175 45.6875 9.875 C42.77281584 9.77919176 42.77281584 9.77919176 40 12 C37.9957428 12.27174377 37.9957428 12.27174377 35.68383789 12.30297852 C34.3821743 12.32794151 34.3821743 12.32794151 33.05421448 12.35340881 C32.11980026 12.36182297 31.18538605 12.37023712 30.22265625 12.37890625 C29.25976181 12.39590073 28.29686737 12.4128952 27.30479431 12.43040466 C24.22409644 12.48357689 21.14341145 12.52383551 18.0625 12.5625 C14.98522947 12.60647131 11.90806182 12.65324177 8.83091736 12.70530701 C6.91560069 12.73717642 5.00019382 12.76409355 3.08473206 12.78553772 C2.21380417 12.79902756 1.34287628 12.8125174 0.44555664 12.82641602 C-0.31816757 12.83592789 -1.08189178 12.84543976 -1.86875916 12.85523987 C-4.03182665 12.92450728 -4.03182665 12.92450728 -6.15284729 13.635849 C-6.76240768 13.75601883 -7.37196808 13.87618866 -8 14 C-8.66 13.34 -9.32 12.68 -10 12 C-9.625 9.875 -9.625 9.875 -9 8 C-8.27125168 8.16167664 -7.54250336 8.32335327 -6.79167175 8.4899292 C-4.2339855 8.95724814 -1.92658781 9.13849744 0.66674805 9.16113281 C1.56084885 9.17074036 2.45494965 9.1803479 3.37614441 9.19024658 C4.32838394 9.19449646 5.28062347 9.19874634 6.26171875 9.203125 C7.24872269 9.20882507 8.23572662 9.21452515 9.25263977 9.22039795 C11.33288508 9.22982204 13.41314514 9.2363716 15.4934082 9.24023438 C18.68661997 9.24999731 21.87920321 9.28106787 25.07226562 9.3125 C27.09374618 9.31902488 29.11523133 9.32427737 31.13671875 9.328125 C32.09503098 9.3404718 33.0533432 9.3528186 34.04069519 9.36553955 C34.92533951 9.36253845 35.80998383 9.35953735 36.72143555 9.35644531 C37.89128242 9.36191376 37.89128242 9.36191376 39.08476257 9.36749268 C39.71679092 9.24622009 40.34881927 9.12494751 41 9 C41.66 8.01 42.32 7.02 43 6 C42.505 5.54625 42.01 5.0925 41.5 4.625 C40 3 40 3 40 1 C26.8 1 13.6 1 0 1 C0 0.67 0 0.34 0 0 Z " fill="#61594A" transform="translate(450,445)"/>
<path d="M0 0 C0.45890625 0.433125 0.9178125 0.86625 1.390625 1.3125 C2.00421875 1.869375 2.6178125 2.42625 3.25 3 C3.85328125 3.556875 4.4565625 4.11375 5.078125 4.6875 C7.162653 6.37597443 7.162653 6.37597443 11 6 C11 4.02 11 2.04 11 0 C13 2 15 4 17 6 C18.68608966 6.07205511 20.37500659 6.08386068 22.0625 6.0625 C22.98160156 6.05347656 23.90070312 6.04445313 24.84765625 6.03515625 C25.55792969 6.02355469 26.26820313 6.01195312 27 6 C27.33 4.35 27.66 2.7 28 1 C29.32 1.33 30.64 1.66 32 2 C32 3.32 32 4.64 32 6 C38.27 6.33 44.54 6.66 51 7 C51 7.66 51 8.32 51 9 C45.39 9 39.78 9 34 9 C33.67 10.32 33.34 11.64 33 13 C30.6875 13.6875 30.6875 13.6875 28 14 C26.1875 12.6875 26.1875 12.6875 25 11 C25 10.34 25 9.68 25 9 C23.78183594 9.08121094 22.56367187 9.16242187 21.30859375 9.24609375 C8.55578224 9.84078444 8.55578224 9.84078444 4.24609375 7.51171875 C0 3.23016701 0 3.23016701 0 0 Z " fill="#8C7F59" transform="translate(617,580)"/>
<path d="M0 0 C0.99 0.33 1.98 0.66 3 1 C3 2.32 3 3.64 3 5 C1.68 5 0.36 5 -1 5 C-1.66 6.32 -2.32 7.64 -3 9 C-6.63 12.96 -10.26 16.92 -14 21 C1.84 21.33 17.68 21.66 34 22 C34 22.33 34 22.66 34 23 C33.10692139 23.03758423 33.10692139 23.03758423 32.19580078 23.07592773 C29.50530864 23.19177494 26.8151766 23.31455196 24.125 23.4375 C22.71927734 23.49647461 22.71927734 23.49647461 21.28515625 23.55664062 C20.38925781 23.59853516 19.49335937 23.64042969 18.5703125 23.68359375 C17.32918701 23.73858032 17.32918701 23.73858032 16.06298828 23.79467773 C13.93820571 23.88238327 13.93820571 23.88238327 12 25 C12 24.34 12 23.68 12 23 C11.319375 23.0721875 10.63875 23.144375 9.9375 23.21875 C8.968125 23.3115625 7.99875 23.404375 7 23.5 C5.3603125 23.66242188 5.3603125 23.66242188 3.6875 23.828125 C0.38475358 23.98206657 -2.67808191 23.7351799 -5.95874023 23.4074707 C-10.09011433 23.08876047 -14.07673709 22.78897663 -17.73779297 25.09423828 C-21.18782385 28.07188825 -23.95752007 31.57628456 -26.67138672 35.22070312 C-27.93566387 36.91384018 -29.24721608 38.5470221 -30.59765625 40.171875 C-32.10501888 41.98561215 -33.59603852 43.81319245 -35.0625 45.66015625 C-36.94247678 47.93053143 -38.7930898 50.04387505 -41 52 C-43.25 51.75 -43.25 51.75 -45 51 C-44.67 50.34 -44.34 49.68 -44 49 C-43.38125 48.85949219 -42.7625 48.71898437 -42.125 48.57421875 C-39.47233446 47.85741391 -38.72948167 46.92480964 -37 44.8125 C-36.39929688 44.09449219 -35.79859375 43.37648438 -35.1796875 42.63671875 C-34.46039062 41.76660156 -33.74109375 40.89648438 -33 40 C-31.04987825 37.70128869 -29.0872713 35.41334149 -27.125 33.125 C-26.60574951 32.51720703 -26.08649902 31.90941406 -25.55151367 31.28320312 C-22.52249008 27.74469048 -19.44907253 24.25668735 -16.3125 20.8125 C-7.38885456 10.98106263 -7.38885456 10.98106263 0 0 Z " fill="#C2B692" transform="translate(658,422)"/>
<path d="M0 0 C16.17 0 32.34 0 49 0 C48.34 1.32 47.68 2.64 47 4 C41.78557724 4.0494186 36.57129066 4.08572831 31.35668945 4.10986328 C29.58257676 4.11992411 27.80848065 4.13357422 26.03442383 4.15087891 C23.48514716 4.17512378 20.93608963 4.18648218 18.38671875 4.1953125 C17.19594978 4.21079636 17.19594978 4.21079636 15.98112488 4.22659302 C12.11776957 4.2273811 10.29160554 4.19440369 7 2 C4.94290404 1.75944532 4.94290404 1.75944532 2.8125 1.875 C1.554375 1.91625 0.29625 1.9575 -1 2 C-0.67 1.34 -0.34 0.68 0 0 Z " fill="#F3EDB9" transform="translate(539,545)"/>
<path d="M0 0 C9.24 0 18.48 0 28 0 C26.92653912 5.36730438 25.15322333 7.46526111 21.5 11.1875 C17.83450879 14.78507047 17.83450879 14.78507047 15 19 C14.34 18.67 13.68 18.34 13 18 C14.32 16.35 15.64 14.7 17 13 C16.67 12.34 16.34 11.68 16 11 C15.01 11 14.02 11 13 11 C12.75 4.375 12.75 4.375 15 1 C10.05 1 5.1 1 0 1 C0 0.67 0 0.34 0 0 Z " fill="#4D4C46" transform="translate(642,445)"/>
<path d="M0 0 C21.45 0 42.9 0 65 0 C64.67 0.66 64.34 1.32 64 2 C63.22914063 1.98839844 62.45828125 1.97679687 61.6640625 1.96484375 C60.66117188 1.95582031 59.65828125 1.94679688 58.625 1.9375 C57.12839844 1.92009766 57.12839844 1.92009766 55.6015625 1.90234375 C53.01567547 1.81993398 53.01567547 1.81993398 51 3 C48.25183349 3.09900274 45.52956362 3.13983027 42.78125 3.1328125 C41.96756958 3.13376923 41.15388916 3.13472595 40.31555176 3.13571167 C38.59399335 3.13639263 36.87243239 3.13454417 35.15087891 3.13037109 C32.51068371 3.12502165 29.87065864 3.13031889 27.23046875 3.13671875 C25.55989546 3.13605795 23.88932227 3.13477676 22.21875 3.1328125 C21.42601685 3.13483673 20.63328369 3.13686096 19.81652832 3.13894653 C14.22992027 3.11496014 14.22992027 3.11496014 12 2 C9.9625237 1.77141886 7.91959697 1.58975722 5.875 1.4375 C4.23144531 1.31181641 4.23144531 1.31181641 2.5546875 1.18359375 C1.71164062 1.12300781 0.86859375 1.06242187 0 1 C0 0.67 0 0.34 0 0 Z " fill="#E6DA9B" transform="translate(538,471)"/>
<path d="M0 0 C1 1 1 1 1.25 4.375 C1 8 1 8 -0.0625 10 C-2 11 -2 11 -5.25 10.1875 C-8.96115149 9.57371915 -8.96115149 9.57371915 -11.01171875 11.703125 C-12.77174871 13.74518816 -14.42522317 15.81254404 -16 18 C-16.66 17.67 -17.32 17.34 -18 17 C-17.50628906 16.50371094 -17.01257813 16.00742187 -16.50390625 15.49609375 C-12.25872432 10.99466341 -10.49663287 8.33206906 -10 2 C-7.59707155 -2.27187279 -4.2793235 -0.95096078 0 0 Z " fill="#ADA47E" transform="translate(681,517)"/>
<path d="M0 0 C12 0 24 0 36 0 C34.42578125 2.546875 34.42578125 2.546875 32 5 C28.79296875 5.015625 28.79296875 5.015625 25.1875 4.25 C20.09941287 3.20685891 16.07466538 2.64557299 11 4 C8.33322855 6.23055357 8.33322855 6.23055357 6.1875 9.0625 C4.824275 10.73544221 3.43571621 12.38883985 2 14 C1.34 14 0.68 14 0 14 C0 12.35 0 10.7 0 9 C0.721875 8.79375 1.44375 8.5875 2.1875 8.375 C5.9255306 6.54751837 7.49246917 4.29561194 10 1 C6.7 1 3.4 1 0 1 C0 0.67 0 0.34 0 0 Z " fill="#323636" transform="translate(590,445)"/>
<path d="M0 0 C6.6 0 13.2 0 20 0 C18.68 2.31 17.36 4.62 16 7 C14.22992286 7.08114106 12.45877902 7.13925505 10.6875 7.1875 C9.70136719 7.22230469 8.71523438 7.25710938 7.69921875 7.29296875 C5 7 5 7 3.14453125 5.67578125 C2 4 2 4 2 1 C1.34 0.67 0.68 0.34 0 0 Z " fill="#F3EBC8" transform="translate(488,471)"/>
<path d="M0 0 C3.43301849 3.24744993 5.51567521 5.85945868 8 10 C-12.46 10 -32.92 10 -54 10 C-54 9.67 -54 9.34 -54 9 C-36.18 9 -18.36 9 0 9 C0 6.03 0 3.06 0 0 Z " fill="#D5D6D2" transform="translate(705,477)"/>
<path d="M0 0 C0.66 0 1.32 0 2 0 C0.33248852 3.94139078 -2.22710649 6.7892812 -5 10 C-1.7 10 1.6 10 5 10 C2.96940865 15.75334215 0.91970564 18.39221586 -4 22 C-2.47291037 18.56404834 -0.40072955 15.88087546 2 13 C0.39667209 12.91878076 -1.20784026 12.86070866 -2.8125 12.8125 C-3.70582031 12.77769531 -4.59914063 12.74289062 -5.51953125 12.70703125 C-8.41647515 13.04918998 -9.22555028 13.75393573 -11 16 C-10.67 14.68 -10.34 13.36 -10 12 C-13.63 12 -17.26 12 -21 12 C-20.34 11.01 -19.68 10.02 -19 9 C-16.6796875 9.0234375 -16.6796875 9.0234375 -13.875 9.375 C-10.06154839 9.52533318 -8.56009171 9.45850204 -5.56640625 7.0078125 C-4.17747355 5.37167526 -2.83777446 3.69205375 -1.55859375 1.96875 C-1.04425781 1.3190625 -0.52992188 0.669375 0 0 Z " fill="#9D9776" transform="translate(514,563)"/>
<path d="M0 0 C1.32 0.66 2.64 1.32 4 2 C3.01 2.66 2.02 3.32 1 4 C0.45897058 5.93169781 0.45897058 5.93169781 0.375 8.0625 C0 12 0 12 -1 13 C-2.85287502 13.07226502 -4.70833878 13.0838122 -6.5625 13.0625 C-7.57441406 13.05347656 -8.58632813 13.04445313 -9.62890625 13.03515625 C-10.41136719 13.02355469 -11.19382812 13.01195312 -12 13 C-8.43679155 7.90789714 -4.95258714 3.77339973 0 0 Z " fill="#1E2730" transform="translate(604,431)"/>
<path d="M0 0 C0.66 0 1.32 0 2 0 C2.33 0.804375 2.66 1.60875 3 2.4375 C4.72634103 5.2048032 4.72634103 5.2048032 7.41796875 5.5546875 C9.95036306 5.79042519 12.45752277 5.94752861 15 6 C13.25 10.875 13.25 10.875 11 12 C10.34 11.67 9.68 11.34 9 11 C9 11.66 9 12.32 9 13 C7 13 7 13 4.875 11.125 C3 9 3 9 3 7 C2.01 7.33 1.02 7.66 0 8 C-0.33 7.01 -0.66 6.02 -1 5 C-1.33 5.66 -1.66 6.32 -2 7 C-2.66 7 -3.32 7 -4 7 C-2.92598892 4.08482708 -2.22189824 2.22189824 0 0 Z " fill="#FAF5D1" transform="translate(488,472)"/>
<path d="M0 0 C1 2 1 2 0.328125 4.49609375 C-0.02765625 5.46675781 -0.3834375 6.43742187 -0.75 7.4375 C-1.26820313 8.88962891 -1.26820313 8.88962891 -1.796875 10.37109375 C-2.95347039 12.89832979 -3.7842836 14.34940319 -6 16 C-6.99 16 -7.98 16 -9 16 C-9.66 13.03 -10.32 10.06 -11 7 C-10.01 6.34 -9.02 5.68 -8 5 C-7.67 5.99 -7.34 6.98 -7 8 C-4.35247996 5.42215154 -2.05567935 3.08351902 0 0 Z " fill="#FDFBE9" transform="translate(469,500)"/>
<path d="M0 0 C1.98 0.66 3.96 1.32 6 2 C6.625 4.3125 6.625 4.3125 7 7 C6.01 8.485 6.01 8.485 5 10 C2 10.375 2 10.375 -1 10 C-3 7 -3 7 -2.75 4.4375 C-2 2 -2 2 0 0 Z " fill="#B8A774" transform="translate(545,589)"/>
<path d="M0 0 C0 3.69418201 -1.28179295 5.77836178 -3 9 C-5.97 9 -8.94 9 -12 9 C-12.33 9.99 -12.66 10.98 -13 12 C-14.65 12 -16.3 12 -18 12 C-18.625 9.625 -18.625 9.625 -19 7 C-18.34 6.34 -17.68 5.68 -17 5 C-13.46428571 5.53571429 -13.46428571 5.53571429 -12 7 C-9.2140814 7.67012422 -9.2140814 7.67012422 -6 7 C-3.6739607 4.89973879 -1.82665817 2.5391844 0 0 Z " fill="#6D6657" transform="translate(481,580)"/>
<path d="M0 0 C0.66 0 1.32 0 2 0 C0.43767979 3.67956291 -1.83584082 6.16515793 -4.5625 9.0625 C-8.91061167 13.7566987 -12.9986431 18.586861 -16.9921875 23.58984375 C-18.89944067 25.87928967 -20.76868578 28.02329632 -23 30 C-25.25 29.75 -25.25 29.75 -27 29 C-26.67 28.34 -26.34 27.68 -26 27 C-25.38125 26.85949219 -24.7625 26.71898437 -24.125 26.57421875 C-21.47233446 25.85741391 -20.72948167 24.92480964 -19 22.8125 C-18.40703125 22.10222656 -17.8140625 21.39195312 -17.203125 20.66015625 C-16.47609375 19.78230469 -15.7490625 18.90445312 -15 18 C-13.99720457 16.82995892 -12.99180485 15.66214687 -11.984375 14.49609375 C-6.4265342 8.19549395 -6.4265342 8.19549395 -1.265625 1.578125 C-0.63914062 0.79695313 -0.63914062 0.79695313 0 0 Z " fill="#D5D2B9" transform="translate(640,444)"/>
<path d="M0 0 C0.68666748 0.13784912 1.37333496 0.27569824 2.08081055 0.41772461 C5.6254153 1.12474831 9.1067419 1.22995888 12.70703125 1.31640625 C13.43242599 1.33718735 14.15782074 1.35796844 14.90519714 1.37937927 C17.20754113 1.44442215 19.50999282 1.50354773 21.8125 1.5625 C23.37956814 1.60572835 24.94662565 1.64934398 26.51367188 1.69335938 C30.34233936 1.80005668 34.1711145 1.90144969 38 2 C38 2.33 38 2.66 38 3 C37.07662842 3.01981934 36.15325684 3.03963867 35.2019043 3.06005859 C31.77438826 3.13817739 28.34731202 3.22486997 24.92016602 3.31738281 C23.43717788 3.35565347 21.95409752 3.39050978 20.47094727 3.421875 C18.33836928 3.467568 16.20642509 3.52555338 14.07421875 3.5859375 C12.79119873 3.6173584 11.50817871 3.6487793 10.1862793 3.68115234 C6.84612541 3.76379228 6.84612541 3.76379228 4 6 C1.8125 5.625 1.8125 5.625 0 5 C-0.5625 3.0625 -0.5625 3.0625 -1 1 C-0.67 0.67 -0.34 0.34 0 0 Z " fill="#696255" transform="translate(441,453)"/>
<path d="M0 0 C1.65 0.66 3.3 1.32 5 2 C4.67 3.98 4.34 5.96 4 8 C2.02 8 0.04 8 -2 8 C-2.33 7.34 -2.66 6.68 -3 6 C-5.8159849 5.53101037 -5.8159849 5.53101037 -9.0625 5.375 C-10.16722656 5.30023438 -11.27195312 5.22546875 -12.41015625 5.1484375 C-13.26480469 5.09945313 -14.11945312 5.05046875 -15 5 C-15 4.34 -15 3.68 -15 3 C-13.75283203 3.05220703 -13.75283203 3.05220703 -12.48046875 3.10546875 C-11.39378906 3.13253906 -10.30710937 3.15960938 -9.1875 3.1875 C-8.10855469 3.22230469 -7.02960937 3.25710938 -5.91796875 3.29296875 C-2.98051156 3.26536952 -2.98051156 3.26536952 -1.11328125 1.48828125 C-0.74589844 0.99714844 -0.37851562 0.50601562 0 0 Z " fill="#AB9F72" transform="translate(582,427)"/>
<path d="M0 0 C3.71599191 -0.20086443 4.77208445 -0.1519437 8 2 C10.60793391 2.2402117 13.11887145 2.37263695 15.73046875 2.4140625 C16.48088943 2.43342865 17.23131012 2.4527948 18.00447083 2.4727478 C20.39869867 2.53247459 22.79297477 2.57890065 25.1875 2.625 C26.8118698 2.6631862 28.43621948 2.70223831 30.06054688 2.7421875 C34.04020105 2.83817025 38.01995001 2.92222636 42 3 C41.67 3.66 41.34 4.32 41 5 C40.26885986 4.99476318 39.53771973 4.98952637 38.78442383 4.98413086 C35.46045802 4.96329839 32.13650597 4.95031986 28.8125 4.9375 C27.66201172 4.92912109 26.51152344 4.92074219 25.32617188 4.91210938 C24.21435547 4.90888672 23.10253906 4.90566406 21.95703125 4.90234375 C20.42526245 4.89448853 20.42526245 4.89448853 18.86254883 4.88647461 C16.00906304 4.91951419 16.00906304 4.91951419 13.30859375 5.56835938 C10.00114493 6.18675717 8.16059215 5.03113588 5.1875 3.5625 C3.72376953 2.85287109 3.72376953 2.85287109 2.23046875 2.12890625 C1.49441406 1.75636719 0.75835938 1.38382813 0 1 C0 0.67 0 0.34 0 0 Z " fill="#FEFEE9" transform="translate(541,546)"/>
<path d="M0 0 C2.625 0.375 2.625 0.375 5 1 C5.625 3.875 5.625 3.875 6 7 C4 9 4 9 1.4375 9.1875 C-1 9 -1 9 -2 8 C-2.1875 5.0625 -2.1875 5.0625 -2 2 C-1.34 1.34 -0.68 0.68 0 0 Z " fill="#282D30" transform="translate(675,517)"/>
<path d="M0 0 C2.00720923 0.28674418 4.0085944 0.61866701 6 1 C6 2.98 6 4.96 6 7 C3.125 7.625 3.125 7.625 0 8 C-0.66 7.34 -1.32 6.68 -2 6 C-1.44444444 1.44444444 -1.44444444 1.44444444 0 0 Z " fill="#9B9174" transform="translate(467,463)"/>
<path d="M0 0 C2.6015625 -0.29296875 2.6015625 -0.29296875 5.625 -0.1875 C7.12933594 -0.14689453 7.12933594 -0.14689453 8.6640625 -0.10546875 C9.43492187 -0.07066406 10.20578125 -0.03585937 11 0 C11 0.33 11 0.66 11 1 C9.741875 1.268125 8.48375 1.53625 7.1875 1.8125 C3.92849028 2.61144595 2.16819928 3.34997865 0 6 C-0.66 6 -1.32 6 -2 6 C-2.33 6.99 -2.66 7.98 -3 9 C-4.65 9.33 -6.3 9.66 -8 10 C-7.59007812 9.52949219 -7.18015625 9.05898438 -6.7578125 8.57421875 C-6.21898437 7.95160156 -5.68015625 7.32898438 -5.125 6.6875 C-4.59132813 6.07261719 -4.05765625 5.45773437 -3.5078125 4.82421875 C-1.8359553 2.86501788 -1.8359553 2.86501788 0 0 Z " fill="#363838" transform="translate(530,445)"/>
<path d="M0 0 C0.99 0 1.98 0 3 0 C2.84595887 5.08335725 -0.02068432 7.35754718 -3.50390625 10.64453125 C-3.99761719 11.09183594 -4.49132812 11.53914063 -5 12 C-5.99 11.67 -6.98 11.34 -8 11 C-8 10.34 -8 9.68 -8 9 C-7.236875 8.401875 -6.47375 7.80375 -5.6875 7.1875 C-2.88092296 5.16114661 -2.88092296 5.16114661 -1.375 2.25 C-0.92125 1.5075 -0.4675 0.765 0 0 Z " fill="#6F706C" transform="translate(659,499)"/>
<path d="M0 0 C3.63 0 7.26 0 11 0 C11.33 0.99 11.66 1.98 12 3 C11.52949219 3.45890625 11.05898438 3.9178125 10.57421875 4.390625 C6.66905586 8.22585692 6.66905586 8.22585692 3.1875 12.4375 C2.5996875 13.2109375 2.5996875 13.2109375 2 14 C1.34 14 0.68 14 0 14 C0 12.35 0 10.7 0 9 C0.721875 8.79375 1.44375 8.5875 2.1875 8.375 C5.9255306 6.54751837 7.49246917 4.29561194 10 1 C6.7 1 3.4 1 0 1 C0 0.67 0 0.34 0 0 Z " fill="#887E61" transform="translate(590,445)"/>
<path d="M0 0 C0 0.66 0 1.32 0 2 C-5.61 2 -11.22 2 -17 2 C-17.33 3.32 -17.66 4.64 -18 6 C-18.66 5.67 -19.32 5.34 -20 5 C-19.67 3.68 -19.34 2.36 -19 1 C-12.51870203 -1.50413785 -6.81508864 -0.82810601 0 0 Z " fill="#AC9D6E" transform="translate(668,587)"/>
<path d="M0 0 C0.70511719 0.26296875 1.41023437 0.5259375 2.13671875 0.796875 C2.13671875 1.456875 2.13671875 2.116875 2.13671875 2.796875 C-0.86328125 4.796875 -0.86328125 4.796875 -3.28125 5.19921875 C-6.42644165 5.92722831 -7.83105513 7.17361336 -10.17578125 9.359375 C-10.87316406 10.00003906 -11.57054687 10.64070312 -12.2890625 11.30078125 C-12.80855469 11.79449219 -13.32804688 12.28820312 -13.86328125 12.796875 C-13.86328125 9.796875 -13.86328125 9.796875 -11.6328125 7.28125 C-10.65535765 6.36097959 -9.66926878 5.44981361 -8.67578125 4.546875 C-7.95165039 3.83917969 -7.95165039 3.83917969 -7.21289062 3.1171875 C-4.68401651 0.79537556 -3.50168575 -0.24841427 0 0 Z " fill="#5C5B53" transform="translate(610.86328125,583.203125)"/>
<path d="M0 0 C0.35882213 3.22939919 0.27258004 4.61209763 -1.625 7.3125 C-4.60457419 9.42956587 -6.42236811 9.32523926 -10 9 C-8.33333333 7.33333333 -6.66666667 5.66666667 -5 4 C-4.2575 3.236875 -3.515 2.47375 -2.75 1.6875 C-1 0 -1 0 0 0 Z " fill="#F0E8AF" transform="translate(534,550)"/>
<path d="M0 0 C0 2.72139175 -0.05884357 4.48044581 -1 7 C-2.8125 8.6328125 -2.8125 8.6328125 -5 10.125 C-8.02283894 12.10073376 -8.02283894 12.10073376 -10 15 C-10.66 15 -11.32 15 -12 15 C-10.38462556 11.10082032 -7.72075127 8.28706228 -4.875 5.25 C-4.40707031 4.74339844 -3.93914062 4.23679687 -3.45703125 3.71484375 C-2.30873459 2.47280859 -1.15491328 1.23588506 0 0 Z " fill="#7F7867" transform="translate(500,512)"/>
<path d="M0 0 C0 0.66 0 1.32 0 2 C-3.08809695 3.76462683 -4.23312136 4 -8 4 C-8.226875 4.5775 -8.45375 5.155 -8.6875 5.75 C-10.33038023 8.5663661 -12.39533227 10.08077114 -15 12 C-13.60991124 6.74855359 -10.1957125 4.12699328 -6 1 C-4 0 -4 0 0 0 Z " fill="#EAEAD4" transform="translate(537,472)"/>
<path d="M0 0 C1.67542976 0.28604898 3.34385343 0.61781233 5 1 C5 2.65 5 4.3 5 6 C3.34385343 6.38218767 1.67542976 6.71395102 0 7 C-1 6 -1 6 -1.125 3.5 C-1 1 -1 1 0 0 Z " fill="#2B2F35" transform="translate(545,591)"/>
<path d="M0 0 C5.61 0 11.22 0 17 0 C16.01 1.485 16.01 1.485 15 3 C9.82544544 3.96246715 4.81898887 2.97702107 0 1 C0 0.67 0 0.34 0 0 Z " fill="#DFC786" transform="translate(488,471)"/>
<path d="M0 0 C1.32 0 2.64 0 4 0 C3.67 1.32 3.34 2.64 3 4 C2.34 4 1.68 4 1 4 C0.731875 4.58265625 0.46375 5.1653125 0.1875 5.765625 C-1.01480991 8.02786601 -2.33825913 9.80576318 -4 11.75 C-4.515625 12.36359375 -5.03125 12.9771875 -5.5625 13.609375 C-7 15 -7 15 -9 15 C-9.33 14.01 -9.66 13.02 -10 12 C-9.2575 11.5875 -8.515 11.175 -7.75 10.75 C-4.02173207 8.37746586 -1.44115114 6.61755419 -0.25 2.25 C-0.1675 1.5075 -0.085 0.765 0 0 Z " fill="#998E69" transform="translate(530,423)"/>
<path d="M0 0 C2.96404505 2.80804268 5.44499019 5.18315774 7 9 C4.69 9 2.38 9 0 9 C0 6.03 0 3.06 0 0 Z " fill="#D0B776" transform="translate(706,478)"/>
<path d="M0 0 C1.98 0 3.96 0 6 0 C4.34784004 3.57967992 2.26875648 6.77982952 0 10 C-0.33 10 -0.66 10 -1 10 C-0.67 6.7 -0.34 3.4 0 0 Z " fill="#DFC484" transform="translate(706,545)"/>
<path d="M0 0 C0.84691406 0.24363281 0.84691406 0.24363281 1.7109375 0.4921875 C4.08808621 1.01954131 6.19343118 1.13313234 8.625 1.125 C9.40101563 1.12757813 10.17703125 1.13015625 10.9765625 1.1328125 C13.06959248 1.12673369 13.06959248 1.12673369 15 0 C14 3 14 3 12 4 C10.12620395 4.07033769 8.24998898 4.0843022 6.375 4.0625 C5.37210937 4.05347656 4.36921875 4.04445313 3.3359375 4.03515625 C2.56507813 4.02355469 1.79421875 4.01195312 1 4 C0.67 2.68 0.34 1.36 0 0 Z " fill="#FDECAD" transform="translate(490,472)"/>
<path d="M0 0 C0.33 0.66 0.66 1.32 1 2 C-1.2 8.6 -1.2 8.6 -4 10 C-6 10 -6 10 -9 9 C-8.67 7.68 -8.34 6.36 -8 5 C-7.67 5.99 -7.34 6.98 -7 8 C-4.35247996 5.42215154 -2.05567935 3.08351902 0 0 Z " fill="#E6E2B0" transform="translate(469,500)"/>
<path d="M0 0 C2.66757606 1.58267671 4.6864555 2.80871231 5.50634766 5.92382812 C5.71613753 8.20854707 5.79537923 10.45581684 5.8125 12.75 C5.85020508 13.93916016 5.85020508 13.93916016 5.88867188 15.15234375 C5.9473673 17.10103195 5.9765898 19.05056859 6 21 C5.01 21 4.02 21 3 21 C3.03480469 19.87980469 3.06960938 18.75960937 3.10546875 17.60546875 C3.13360839 16.13282749 3.16090837 14.66017002 3.1875 13.1875 C3.21263672 12.44951172 3.23777344 11.71152344 3.26367188 10.95117188 C3.41097338 6.72103539 3.41097338 6.72103539 1.48828125 3.11328125 C0.99714844 2.74589844 0.50601563 2.37851562 0 2 C0 1.34 0 0.68 0 0 Z " fill="#938369" transform="translate(560,593)"/>
<path d="M0 0 C7.92 0 15.84 0 24 0 C23.01 0.99 22.02 1.98 21 3 C20.67 2.67 20.34 2.34 20 2 C18.5112814 1.91330568 17.018555 1.89296506 15.52734375 1.90234375 C14.17866211 1.90717773 14.17866211 1.90717773 12.80273438 1.91210938 C11.38444336 1.92467773 11.38444336 1.92467773 9.9375 1.9375 C8.98810547 1.94201172 8.03871094 1.94652344 7.06054688 1.95117188 C4.70696935 1.9629989 2.35351523 1.97947975 0 2 C0 1.34 0 0.68 0 0 Z " fill="#202121" transform="translate(576,575)"/>
<path d="M0 0 C2.5 2.3125 2.5 2.3125 5 5 C5 5.99 5 6.98 5 8 C2.36 8 -0.28 8 -3 8 C-2.01 7.34 -1.02 6.68 0 6 C0.2502157 2.91634129 0.2502157 2.91634129 0 0 Z " fill="#6C674B" transform="translate(628,580)"/>
<path d="M0 0 C0.33 0.99 0.66 1.98 1 3 C-0.98 4.98 -2.96 6.96 -5 9 C-5.99 8.67 -6.98 8.34 -8 8 C-8.6875 5.9375 -8.6875 5.9375 -9 4 C-6 5 -6 5 -5 6 C-3.35 4.02 -1.7 2.04 0 0 Z " fill="#2F3136" transform="translate(519,458)"/>
<path d="M0 0 C3 0 3 0 6 1 C5.67 2.32 5.34 3.64 5 5 C3.02 5 1.04 5 -1 5 C-1.33 4.01 -1.66 3.02 -2 2 C-1.34 2 -0.68 2 0 2 C0 1.34 0 0.68 0 0 Z " fill="#4D4C4C" transform="translate(562,414)"/>
<path d="M0 0 C-1.43561686 3.18706942 -3.20266329 5.62169105 -5.5 8.25 C-6.1084375 8.95640625 -6.716875 9.6628125 -7.34375 10.390625 C-9 12 -9 12 -11 12 C-9.56438314 8.81293058 -7.79733671 6.37830895 -5.5 3.75 C-4.8915625 3.04359375 -4.283125 2.3371875 -3.65625 1.609375 C-2 0 -2 0 0 0 Z " fill="#C4BD99" transform="translate(516,563)"/>
<path d="M0 0 C1.32 0 2.64 0 4 0 C4.33 5.28 4.66 10.56 5 16 C4.01 15.67 3.02 15.34 2 15 C2.33 10.71 2.66 6.42 3 2 C2.01 2 1.02 2 0 2 C0 1.34 0 0.68 0 0 Z " fill="#867964" transform="translate(611,587)"/>
<path d="M0 0 C0.99 0 1.98 0 3 0 C1.25 4.875 1.25 4.875 -1 6 C-1.66 5.67 -2.32 5.34 -3 5 C-3 5.66 -3 6.32 -3 7 C-3.66 7 -4.32 7 -5 7 C-4.1875 5.0625 -4.1875 5.0625 -3 3 C-2.01 2.67 -1.02 2.34 0 2 C0 1.34 0 0.68 0 0 Z " fill="#F1F1E4" transform="translate(500,478)"/>
<path d="M0 0 C0.99 0 1.98 0 3 0 C3 0.66 3 1.32 3 2 C3.99 2.33 4.98 2.66 6 3 C4.68 3.99 3.36 4.98 2 6 C1.01 5.01 0.02 4.02 -1 3 C-0.67 2.01 -0.34 1.02 0 0 Z " fill="#252D32" transform="translate(605,576)"/>
<path d="M0 0 C1.98 0.495 1.98 0.495 4 1 C4 2.32 4 3.64 4 5 C2.35 5 0.7 5 -1 5 C-0.67 3.35 -0.34 1.7 0 0 Z " fill="#2D2D2C" transform="translate(468,464)"/>
<path d="M0 0 C0.66 0 1.32 0 2 0 C2 0.99 2 1.98 2 3 C3.32 3.66 4.64 4.32 6 5 C2.7 5 -0.6 5 -4 5 C-2.71937515 3.2925002 -1.38232443 1.62626404 0 0 Z " fill="#1A1F27" transform="translate(596,439)"/>
<path d="M0 0 C1.32 0 2.64 0 4 0 C3.67 1.65 3.34 3.3 3 5 C1.68 4.67 0.36 4.34 -1 4 C-0.67 2.68 -0.34 1.36 0 0 Z " fill="#5C5647" transform="translate(441,453)"/>
<path d="M0 0 C0.66 0.33 1.32 0.66 2 1 C-0.64 3.97 -3.28 6.94 -6 10 C-6.33 9.34 -6.66 8.68 -7 8 C-4.69 5.36 -2.38 2.72 0 0 Z " fill="#CCC99B" transform="translate(496,568)"/>
<path d="M0 0 C1.98 0 3.96 0 6 0 C5.34 1.32 4.68 2.64 4 4 C2.68 4 1.36 4 0 4 C0 2.68 0 1.36 0 0 Z " fill="#FDF6CA" transform="translate(460,509)"/>
<path d="M0 0 C0.66 0 1.32 0 2 0 C1.38545304 3.99455527 -0.70646737 6.74466336 -3 10 C-3.33 8.68 -3.66 7.36 -4 6 C-3.01 5.67 -2.02 5.34 -1 5 C-0.67 3.35 -0.34 1.7 0 0 Z " fill="#292C27" transform="translate(474,488)"/>
<path d="M0 0 C0.66 0.66 1.32 1.32 2 2 C1.09972412 3.03531726 0.17906965 4.05294165 -0.75 5.0625 C-1.51570312 5.91521484 -1.51570312 5.91521484 -2.296875 6.78515625 C-4 8 -4 8 -6.203125 7.68359375 C-6.79609375 7.45800781 -7.3890625 7.23242188 -8 7 C-7.67 6.34 -7.34 5.68 -7 5 C-6.38125 4.87625 -5.7625 4.7525 -5.125 4.625 C-2.32606997 3.80178529 -1.54719585 2.39815356 0 0 Z " fill="#BDB897" transform="translate(621,466)"/>
<path d="M0 0 C-1.37154504 2.95409701 -2.98863724 5.44008376 -5 8 C-5.33 6.35 -5.66 4.7 -6 3 C-2.25 0 -2.25 0 0 0 Z " fill="#262C2D" transform="translate(526,476)"/>
<path d="M0 0 C1.32 0 2.64 0 4 0 C4 1.65 4 3.3 4 5 C2.68 5 1.36 5 0 5 C0 3.35 0 1.7 0 0 Z " fill="#232732" transform="translate(581,429)"/>
<path d="M0 0 C1.65 0 3.3 0 5 0 C5 1.32 5 2.64 5 4 C3.35 4 1.7 4 0 4 C0 2.68 0 1.36 0 0 Z " fill="#938A5E" transform="translate(648,602)"/>
<path d="M0 0 C0.66 0.33 1.32 0.66 2 1 C0.7260411 3.03833424 -0.61061923 5.03852126 -2 7 C-2.66 7 -3.32 7 -4 7 C-3.43628586 3.73045798 -2.50037734 2.17424117 0 0 Z " fill="#2C333D" transform="translate(649,487)"/>
<path d="M0 0 C0.99 0.33 1.98 0.66 3 1 C2.6875 2.9375 2.6875 2.9375 2 5 C1.01 5.33 0.02 5.66 -1 6 C-1.042721 4.33388095 -1.04063832 2.66617115 -1 1 C-0.67 0.67 -0.34 0.34 0 0 Z " fill="#5C5C50" transform="translate(591,453)"/>
<path d="M0 0 C1.32 0.33 2.64 0.66 4 1 C3.67 2.32 3.34 3.64 3 5 C2.01 4.34 1.02 3.68 0 3 C0 2.01 0 1.02 0 0 Z M1 5 C1.99 5.495 1.99 5.495 3 6 C2.01 6.495 2.01 6.495 1 7 C1 6.34 1 5.68 1 5 Z " fill="#6F6852" transform="translate(451,582)"/>
<path d="M0 0 C1.98 0.495 1.98 0.495 4 1 C4 2.32 4 3.64 4 5 C2.35 5.33 0.7 5.66 -1 6 C-0.67 4.02 -0.34 2.04 0 0 Z " fill="#5D5B4E" transform="translate(645,581)"/>
<path d="M0 0 C1.98 1.65 3.96 3.3 6 5 C2.86650268 6.04449911 2.01031744 5.93423645 -1 5 C-0.67 3.35 -0.34 1.7 0 0 Z " fill="#312F2F" transform="translate(491,438)"/>
<path d="M0 0 C0.99 0.33 1.98 0.66 3 1 C3 2.32 3 3.64 3 5 C1.68 5 0.36 5 -1 5 C-0.67 3.35 -0.34 1.7 0 0 Z " fill="#E7D082" transform="translate(658,422)"/>
<path d="M0 0 C3.3 0 6.6 0 10 0 C9.01 1.485 9.01 1.485 8 3 C7.01 3 6.02 3 5 3 C5 2.34 5 1.68 5 1 C3.35 1 1.7 1 0 1 C0 0.67 0 0.34 0 0 Z " fill="#181D26" transform="translate(603,575)"/>
<path d="M0 0 C0.78375 0.04125 1.5675 0.0825 2.375 0.125 C0.04166667 2.45833333 -2.29166667 4.79166667 -4.625 7.125 C-4.75 4.75 -4.75 4.75 -4.625 2.125 C-2.625 0.125 -2.625 0.125 0 0 Z " fill="#1B2229" transform="translate(629.625,445.875)"/>
<path d="M0 0 C0.99 0.66 1.98 1.32 3 2 C2.67 2.99 2.34 3.98 2 5 C0.68 4.67 -0.64 4.34 -2 4 C-1.34 2.68 -0.68 1.36 0 0 Z " fill="#4B4844" transform="translate(555,414)"/>
</svg>
